<svg xmlns="http://www.w3.org/2000/svg" width="600" height="480" viewBox="-150 -120 300 240">
  <defs>
    <linearGradient id="g1" x1="0" y1="0" x2="1" y2="1">
      <stop offset="0%" stop-color="#000000"/>
      <stop offset="50%" stop-color="#333333"/>
      <stop offset="100%" stop-color="#666666"/>
    </linearGradient>
  </defs>
  <path d="M-14.14,14.14L-10.99,17.29L-7.81,20.44L-4.62,23.59L-1.41,26.72L1.81,29.81L5.05,32.87L8.30,35.87L11.56,38.80L14.82,41.66L18.10,44.44L21.39,47.11L24.69,49.69L28.01,52.15L31.34,54.48L34.69,56.68L38.07,58.74L41.48,60.65L44.93,62.39L48.44,63.95L51.99,65.32L55.61,66.48L59.30,67.40L63.05,68.06L66.86,68.43L70.71,68.48L74.57,68.18L78.41,67.51L82.16,66.48L85.77,65.07L89.19,63.33L92.39,61.28L95.34,58.96L98.02,56.43L100.43,53.73L102.60,50.87L104.52,47.91L106.23,44.84L107.74,41.68L109.07,38.46L110.22,35.16L111.22,31.81L112.06,28.40L112.77,24.95L113.34,21.45L113.78,17.92L114.09,14.36L114.28,10.78L114.35,7.19L114.31,3.59L114.14,0.00L113.86,-3.58L113.47,-7.13L112.96,-10.65L112.33,-14.13L111.59,-17.56L110.73,-20.92L109.75,-24.22L108.65,-27.43L107.43,-30.56L106.09,-33.58L104.62,-36.50L103.01,-39.29L101.27,-41.96L99.39,-44.48L97.37,-46.84L95.20,-49.02L92.89,-51.01L90.43,-52.78L87.84,-54.32L85.13,-55.59L82.32,-56.58L79.45,-57.28L76.54,-57.69L73.62,-57.81L70.71,-57.65L67.82,-57.24L64.97,-56.58L62.14,-55.70L59.35,-54.61L56.57,-53.33L53.82,-51.86L51.07,-50.22L48.33,-48.42L45.58,-46.46L42.83,-44.35L40.07,-42.09L37.29,-39.70L34.50,-37.18L31.70,-34.53L28.87,-31.77L26.04,-28.91L23.19,-25.95L20.32,-22.90L17.44,-19.77L14.56,-16.58L11.66,-13.33L8.75,-10.04L5.84,-6.71L2.92,-3.36L0.00,-0.00L-2.92,3.36L-5.84,6.71L-8.75,10.04L-11.66,13.33L-14.56,16.58L-17.44,19.77L-20.32,22.90L-23.19,25.95L-26.04,28.91L-28.87,31.77L-31.70,34.53L-34.50,37.18L-37.29,39.70L-40.07,42.09L-42.83,44.35L-45.58,46.46L-48.33,48.42L-51.07,50.22L-53.82,51.86L-56.57,53.33L-59.35,54.61L-62.14,55.70L-64.97,56.58L-67.82,57.24L-70.71,57.65L-73.62,57.81L-76.54,57.69L-79.45,57.28L-82.32,56.58L-85.13,55.59L-87.84,54.32L-90.43,52.78L-92.89,51.01L-95.20,49.02L-97.37,46.84L-99.39,44.48L-101.27,41.96L-103.01,39.29L-104.62,36.50L-106.09,33.58L-107.43,30.56L-108.65,27.43L-109.75,24.22L-110.73,20.92L-111.59,17.56L-112.33,14.13L-112.96,10.65L-113.47,7.13L-113.86,3.58L-114.14,0.00L-114.31,-3.59L-114.35,-7.19L-114.28,-10.78L-114.09,-14.36L-113.78,-17.92L-113.34,-21.45L-112.77,-24.95L-112.06,-28.40L-111.22,-31.81L-110.22,-35.16L-109.07,-38.46L-107.74,-41.68L-106.23,-44.84L-104.52,-47.91L-102.60,-50.87L-100.43,-53.73L-98.02,-56.43L-95.34,-58.96L-92.39,-61.28L-89.19,-63.33L-85.77,-65.07L-82.16,-66.48L-78.41,-67.51L-74.57,-68.18L-70.71,-68.48L-66.86,-68.43L-63.05,-68.06L-59.30,-67.40L-55.61,-66.48L-51.99,-65.32L-48.44,-63.95L-44.93,-62.39L-41.48,-60.65L-38.07,-58.74L-34.69,-56.68L-31.34,-54.48L-28.01,-52.15L-24.69,-49.69L-21.39,-47.11L-18.10,-44.44L-14.82,-41.66L-11.56,-38.80L-8.30,-35.87L-5.05,-32.87L-1.81,-29.81L1.41,-26.72L4.62,-23.59L7.81,-20.44L10.99,-17.29L14.14,-14.14ZM14.14,-14.14L17.27,-11.01L20.37,-7.91L23.44,-4.85L26.48,-1.85L29.47,1.09L32.43,3.95L35.33,6.71L38.18,9.37L40.97,11.92L43.70,14.34L46.36,16.63L48.93,18.77L51.42,20.75L53.82,22.57L56.11,24.22L58.28,25.69L60.33,26.98L62.23,28.09L63.98,29.02L65.57,29.78L66.97,30.38L68.19,30.83L69.21,31.15L70.05,31.37L70.71,31.52L71.22,31.62L71.62,31.70L71.95,31.75L72.26,31.79L72.61,31.78L73.02,31.70L73.53,31.52L74.13,31.20L74.83,30.71L75.60,30.03L76.44,29.15L77.32,28.06L78.21,26.77L79.11,25.29L79.99,23.62L80.84,21.77L81.66,19.77L82.42,17.63L83.12,15.36L83.76,12.98L84.33,10.51L84.83,7.96L85.25,5.35L85.60,2.69L85.86,0.00L86.04,-2.70L86.14,-5.40L86.16,-8.09L86.09,-10.74L85.95,-13.34L85.73,-15.89L85.44,-18.36L85.07,-20.74L84.63,-23.02L84.12,-25.19L83.56,-27.24L82.94,-29.16L82.28,-30.94L81.57,-32.57L80.83,-34.06L80.06,-35.41L79.26,-36.62L78.44,-37.70L77.58,-38.66L76.68,-39.52L75.71,-40.28L74.65,-40.94L73.48,-41.52L72.17,-41.99L70.71,-42.35L69.09,-42.57L67.30,-42.63L65.34,-42.53L63.24,-42.25L60.98,-41.78L58.60,-41.12L56.10,-40.26L53.48,-39.21L50.77,-37.97L47.97,-36.55L45.09,-34.96L42.14,-33.20L39.12,-31.28L36.05,-29.21L32.93,-27.01L29.76,-24.68L26.55,-22.23L23.31,-19.68L20.03,-17.04L16.73,-14.32L13.41,-11.54L10.07,-8.70L6.72,-5.82L3.36,-2.92L0.00,-0.00L-3.36,2.92L-6.72,5.82L-10.07,8.70L-13.41,11.54L-16.73,14.32L-20.03,17.04L-23.31,19.68L-26.55,22.23L-29.76,24.68L-32.93,27.01L-36.05,29.21L-39.12,31.28L-42.14,33.20L-45.09,34.96L-47.97,36.55L-50.77,37.97L-53.48,39.21L-56.10,40.26L-58.60,41.12L-60.98,41.78L-63.24,42.25L-65.34,42.53L-67.30,42.63L-69.09,42.57L-70.71,42.35L-72.17,41.99L-73.48,41.52L-74.65,40.94L-75.71,40.28L-76.68,39.52L-77.58,38.66L-78.44,37.70L-79.26,36.62L-80.06,35.41L-80.83,34.06L-81.57,32.57L-82.28,30.94L-82.94,29.16L-83.56,27.24L-84.12,25.19L-84.63,23.02L-85.07,20.74L-85.44,18.36L-85.73,15.89L-85.95,13.34L-86.09,10.74L-86.16,8.09L-86.14,5.40L-86.04,2.70L-85.86,0.00L-85.60,-2.69L-85.25,-5.35L-84.83,-7.96L-84.33,-10.51L-83.76,-12.98L-83.12,-15.36L-82.42,-17.63L-81.66,-19.77L-80.84,-21.77L-79.99,-23.62L-79.11,-25.29L-78.21,-26.77L-77.32,-28.06L-76.44,-29.15L-75.60,-30.03L-74.83,-30.71L-74.13,-31.20L-73.53,-31.52L-73.02,-31.70L-72.61,-31.78L-72.26,-31.79L-71.95,-31.75L-71.62,-31.70L-71.22,-31.62L-70.71,-31.52L-70.05,-31.37L-69.21,-31.15L-68.19,-30.83L-66.97,-30.38L-65.57,-29.78L-63.98,-29.02L-62.23,-28.09L-60.33,-26.98L-58.28,-25.69L-56.11,-24.22L-53.82,-22.57L-51.42,-20.75L-48.93,-18.77L-46.36,-16.63L-43.70,-14.34L-40.97,-11.92L-38.18,-9.37L-35.33,-6.71L-32.43,-3.95L-29.47,-1.09L-26.48,1.85L-23.44,4.85L-20.37,7.91L-17.27,11.01L-14.14,14.14Z" fill="url(#g1)" fill-rule="evenodd" opacity="1"/>
  <path d="M14.14,-14.14L17.27,-11.01L20.37,-7.91L23.44,-4.85L26.48,-1.85L29.47,1.09L32.43,3.95L35.33,6.71L38.18,9.37L40.97,11.92L43.70,14.34L46.36,16.63L48.93,18.77L51.42,20.75L53.82,22.57L56.11,24.22L58.28,25.69L60.33,26.98L62.23,28.09L63.98,29.02L65.57,29.78L66.97,30.38L68.19,30.83L69.21,31.15L70.05,31.37L70.71,31.52L71.22,31.62L71.62,31.70L71.95,31.75L72.26,31.79L72.61,31.78L73.02,31.70L73.53,31.52L74.13,31.20L74.83,30.71L75.60,30.03L76.44,29.15L77.32,28.06L78.21,26.77L79.11,25.29L79.99,23.62L80.84,21.77L81.66,19.77L82.42,17.63L83.12,15.36L83.76,12.98L84.33,10.51L84.83,7.96L85.25,5.35L85.60,2.69L85.86,0.00L86.04,-2.70L86.14,-5.40L86.16,-8.09L86.09,-10.74L85.95,-13.34L85.73,-15.89L85.44,-18.36L85.07,-20.74L84.63,-23.02L84.12,-25.19L83.56,-27.24L82.94,-29.16L82.28,-30.94L81.57,-32.57L80.83,-34.06L80.06,-35.41L79.26,-36.62L78.44,-37.70L77.58,-38.66L76.68,-39.52L75.71,-40.28L74.65,-40.94L73.48,-41.52L72.17,-41.99L70.71,-42.35L69.09,-42.57L67.30,-42.63L65.34,-42.53L63.24,-42.25L60.98,-41.78L58.60,-41.12L56.10,-40.26L53.48,-39.21L50.77,-37.97L47.97,-36.55L45.09,-34.96L42.14,-33.20L39.12,-31.28L36.05,-29.21L32.93,-27.01L29.76,-24.68L26.55,-22.23L23.31,-19.68L20.03,-17.04L16.73,-14.32L13.41,-11.54L10.07,-8.70L6.72,-5.82L3.36,-2.92L0.00,-0.00L-3.36,2.92L-6.72,5.82L-10.07,8.70L-13.41,11.54L-16.73,14.32L-20.03,17.04L-23.31,19.68L-26.55,22.23L-29.76,24.68L-32.93,27.01L-36.05,29.21L-39.12,31.28L-42.14,33.20L-45.09,34.96L-47.97,36.55L-50.77,37.97L-53.48,39.21L-56.10,40.26L-58.60,41.12L-60.98,41.78L-63.24,42.25L-65.34,42.53L-67.30,42.63L-69.09,42.57L-70.71,42.35L-72.17,41.99L-73.48,41.52L-74.65,40.94L-75.71,40.28L-76.68,39.52L-77.58,38.66L-78.44,37.70L-79.26,36.62L-80.06,35.41L-80.83,34.06L-81.57,32.57L-82.28,30.94L-82.94,29.16L-83.56,27.24L-84.12,25.19L-84.63,23.02L-85.07,20.74L-85.44,18.36L-85.73,15.89L-85.95,13.34L-86.09,10.74L-86.16,8.09L-86.14,5.40L-86.04,2.70L-85.86,0.00L-85.60,-2.69L-85.25,-5.35L-84.83,-7.96L-84.33,-10.51L-83.76,-12.98L-83.12,-15.36L-82.42,-17.63L-81.66,-19.77L-80.84,-21.77L-79.99,-23.62L-79.11,-25.29L-78.21,-26.77L-77.32,-28.06L-76.44,-29.15L-75.60,-30.03L-74.83,-30.71L-74.13,-31.20L-73.53,-31.52L-73.02,-31.70L-72.61,-31.78L-72.26,-31.79L-71.95,-31.75L-71.62,-31.70L-71.22,-31.62L-70.71,-31.52L-70.05,-31.37L-69.21,-31.15L-68.19,-30.83L-66.97,-30.38L-65.57,-29.78L-63.98,-29.02L-62.23,-28.09L-60.33,-26.98L-58.28,-25.69L-56.11,-24.22L-53.82,-22.57L-51.42,-20.75L-48.93,-18.77L-46.36,-16.63L-43.70,-14.34L-40.97,-11.92L-38.18,-9.37L-35.33,-6.71L-32.43,-3.95L-29.47,-1.09L-26.48,1.85L-23.44,4.85L-20.37,7.91L-17.27,11.01L-14.14,14.14ZM8.49,-8.49L11.62,-5.35L14.73,-2.24L17.83,0.84L20.90,3.86L23.94,6.83L26.95,9.73L29.92,12.54L32.86,15.26L35.74,17.87L38.58,20.36L41.36,22.73L44.09,24.95L46.74,27.03L49.32,28.95L51.82,30.71L54.24,32.30L56.56,33.72L58.77,34.95L60.87,36.01L62.85,36.89L64.70,37.60L66.41,38.14L67.98,38.53L69.41,38.79L70.71,38.91L71.89,38.93L72.97,38.86L73.99,38.70L74.96,38.44L75.93,38.09L76.90,37.62L77.89,37.01L78.91,36.24L79.95,35.31L81.00,34.20L82.06,32.90L83.10,31.42L84.12,29.75L85.10,27.92L86.04,25.93L86.92,23.78L87.74,21.50L88.49,19.09L89.16,16.58L89.76,13.97L90.28,11.28L90.72,8.52L91.07,5.71L91.34,2.87L91.51,0.00L91.60,-2.88L91.60,-5.75L91.52,-8.60L91.34,-11.42L91.08,-14.19L90.73,-16.90L90.30,-19.53L89.78,-22.08L89.19,-24.53L88.52,-26.87L87.77,-29.09L86.96,-31.19L86.08,-33.14L85.14,-34.95L84.14,-36.62L83.09,-38.13L81.99,-39.50L80.84,-40.72L79.63,-41.79L78.37,-42.73L77.03,-43.54L75.61,-44.21L74.09,-44.75L72.46,-45.16L70.71,-45.41L68.83,-45.50L66.83,-45.42L64.70,-45.16L62.46,-44.72L60.10,-44.09L57.64,-43.27L55.09,-42.25L52.45,-41.05L49.73,-39.67L46.94,-38.11L44.09,-36.39L41.17,-34.50L38.20,-32.46L35.18,-30.27L32.12,-27.96L29.02,-25.52L25.88,-22.97L22.71,-20.32L19.51,-17.59L16.30,-14.77L13.06,-11.90L9.81,-8.97L6.54,-6.00L3.27,-3.01L0.00,-0.00L-3.27,3.01L-6.54,6.00L-9.81,8.97L-13.06,11.90L-16.30,14.77L-19.51,17.59L-22.71,20.32L-25.88,22.97L-29.02,25.52L-32.12,27.96L-35.18,30.27L-38.20,32.46L-41.17,34.50L-44.09,36.39L-46.94,38.11L-49.73,39.67L-52.45,41.05L-55.09,42.25L-57.64,43.27L-60.10,44.09L-62.46,44.72L-64.70,45.16L-66.83,45.42L-68.83,45.50L-70.71,45.41L-72.46,45.16L-74.09,44.75L-75.61,44.21L-77.03,43.54L-78.37,42.73L-79.63,41.79L-80.84,40.72L-81.99,39.50L-83.09,38.13L-84.14,36.62L-85.14,34.95L-86.08,33.14L-86.96,31.19L-87.77,29.09L-88.52,26.87L-89.19,24.53L-89.78,22.08L-90.30,19.53L-90.73,16.90L-91.08,14.19L-91.34,11.42L-91.52,8.60L-91.60,5.75L-91.60,2.88L-91.51,0.00L-91.34,-2.87L-91.07,-5.71L-90.72,-8.52L-90.28,-11.28L-89.76,-13.97L-89.16,-16.58L-88.49,-19.09L-87.74,-21.50L-86.92,-23.78L-86.04,-25.93L-85.10,-27.92L-84.12,-29.75L-83.10,-31.42L-82.06,-32.90L-81.00,-34.20L-79.95,-35.31L-78.91,-36.24L-77.89,-37.01L-76.90,-37.62L-75.93,-38.09L-74.96,-38.44L-73.99,-38.70L-72.97,-38.86L-71.89,-38.93L-70.71,-38.91L-69.41,-38.79L-67.98,-38.53L-66.41,-38.14L-64.70,-37.60L-62.85,-36.89L-60.87,-36.01L-58.77,-34.95L-56.56,-33.72L-54.24,-32.30L-51.82,-30.71L-49.32,-28.95L-46.74,-27.03L-44.09,-24.95L-41.36,-22.73L-38.58,-20.36L-35.74,-17.87L-32.86,-15.26L-29.92,-12.54L-26.95,-9.73L-23.94,-6.83L-20.90,-3.86L-17.83,-0.84L-14.73,2.24L-11.62,5.35L-8.49,8.49ZM2.83,-2.83L5.97,0.31L9.10,3.43L12.22,6.52L15.32,9.58L18.41,12.58L21.48,15.51L24.52,18.37L27.53,21.14L30.51,23.82L33.46,26.38L36.37,28.82L39.24,31.14L42.06,33.31L44.83,35.33L47.54,37.20L50.20,38.91L52.79,40.45L55.31,41.81L57.76,43.00L60.14,44.00L62.43,44.82L64.63,45.46L66.75,45.92L68.77,46.20L70.71,46.30L72.56,46.25L74.33,46.02L76.03,45.64L77.66,45.10L79.24,44.40L80.77,43.53L82.25,42.50L83.69,41.29L85.07,39.91L86.40,38.37L87.67,36.65L88.88,34.77L90.02,32.74L91.09,30.55L92.08,28.23L92.99,25.79L93.82,23.22L94.56,20.56L95.21,17.80L95.77,14.96L96.24,12.05L96.61,9.09L96.89,6.08L97.08,3.05L97.17,0.00L97.17,-3.05L97.07,-6.09L96.88,-9.11L96.59,-12.10L96.21,-15.03L95.73,-17.90L95.16,-20.70L94.50,-23.42L93.75,-26.04L92.91,-28.55L91.98,-30.95L90.97,-33.21L89.88,-35.35L88.70,-37.34L87.45,-39.17L86.12,-40.86L84.71,-42.38L83.23,-43.73L81.68,-44.92L80.06,-45.95L78.35,-46.80L76.57,-47.48L74.70,-47.99L72.75,-48.32L70.71,-48.47L68.58,-48.43L66.36,-48.21L64.06,-47.80L61.68,-47.19L59.22,-46.40L56.69,-45.41L54.09,-44.24L51.42,-42.89L48.69,-41.37L45.91,-39.67L43.08,-37.81L40.20,-35.80L37.27,-33.64L34.31,-31.34L31.31,-28.91L28.27,-26.37L25.21,-23.72L22.11,-20.97L19.00,-18.13L15.86,-15.22L12.71,-12.25L9.54,-9.23L6.37,-6.18L3.19,-3.10L0.00,-0.00L-3.19,3.10L-6.37,6.18L-9.54,9.23L-12.71,12.25L-15.86,15.22L-19.00,18.13L-22.11,20.97L-25.21,23.72L-28.27,26.37L-31.31,28.91L-34.31,31.34L-37.27,33.64L-40.20,35.80L-43.08,37.81L-45.91,39.67L-48.69,41.37L-51.42,42.89L-54.09,44.24L-56.69,45.41L-59.22,46.40L-61.68,47.19L-64.06,47.80L-66.36,48.21L-68.58,48.43L-70.71,48.47L-72.75,48.32L-74.70,47.99L-76.57,47.48L-78.35,46.80L-80.06,45.95L-81.68,44.92L-83.23,43.73L-84.71,42.38L-86.12,40.86L-87.45,39.17L-88.70,37.34L-89.88,35.35L-90.97,33.21L-91.98,30.95L-92.91,28.55L-93.75,26.04L-94.50,23.42L-95.16,20.70L-95.73,17.90L-96.21,15.03L-96.59,12.10L-96.88,9.11L-97.07,6.09L-97.17,3.05L-97.17,0.00L-97.08,-3.05L-96.89,-6.08L-96.61,-9.09L-96.24,-12.05L-95.77,-14.96L-95.21,-17.80L-94.56,-20.56L-93.82,-23.22L-92.99,-25.79L-92.08,-28.23L-91.09,-30.55L-90.02,-32.74L-88.88,-34.77L-87.67,-36.65L-86.40,-38.37L-85.07,-39.91L-83.69,-41.29L-82.25,-42.50L-80.77,-43.53L-79.24,-44.40L-77.66,-45.10L-76.03,-45.64L-74.33,-46.02L-72.56,-46.25L-70.71,-46.30L-68.77,-46.20L-66.75,-45.92L-64.63,-45.46L-62.43,-44.82L-60.14,-44.00L-57.76,-43.00L-55.31,-41.81L-52.79,-40.45L-50.20,-38.91L-47.54,-37.20L-44.83,-35.33L-42.06,-33.31L-39.24,-31.14L-36.37,-28.82L-33.46,-26.38L-30.51,-23.82L-27.53,-21.14L-24.52,-18.37L-21.48,-15.51L-18.41,-12.58L-15.32,-9.58L-12.22,-6.52L-9.10,-3.43L-5.97,-0.31L-2.83,2.83ZM-2.83,2.83L0.32,5.97L3.46,9.10L6.60,12.21L9.74,15.29L12.88,18.32L16.00,21.30L19.11,24.20L22.21,27.03L25.28,29.77L28.34,32.40L31.38,34.92L34.39,37.32L37.37,39.59L40.33,41.72L43.26,43.70L46.15,45.52L49.02,47.18L51.85,48.67L54.65,49.98L57.42,51.11L60.15,52.04L62.85,52.77L65.51,53.30L68.14,53.61L70.71,53.70L73.23,53.56L75.69,53.19L78.07,52.59L80.37,51.76L82.56,50.71L84.64,49.45L86.61,47.99L88.46,46.34L90.19,44.52L91.80,42.54L93.29,40.40L94.67,38.13L95.93,35.72L97.08,33.19L98.13,30.54L99.07,27.79L99.90,24.95L100.63,22.02L101.25,19.02L101.77,15.94L102.19,12.82L102.50,9.65L102.71,6.45L102.82,3.23L102.83,0.00L102.73,-3.23L102.54,-6.44L102.24,-9.63L101.83,-12.77L101.33,-15.87L100.73,-18.91L100.02,-21.88L99.22,-24.76L98.31,-27.54L97.30,-30.23L96.19,-32.80L94.98,-35.24L93.68,-37.55L92.26,-39.72L90.75,-41.73L89.14,-43.58L87.44,-45.25L85.63,-46.75L83.73,-48.05L81.75,-49.16L79.68,-50.06L77.53,-50.75L75.32,-51.22L73.04,-51.48L70.71,-51.53L68.33,-51.37L65.90,-51.00L63.42,-50.43L60.90,-49.67L58.34,-48.71L55.73,-47.56L53.08,-46.24L50.39,-44.74L47.66,-43.07L44.88,-41.23L42.08,-39.24L39.23,-37.10L36.35,-34.82L33.44,-32.40L30.50,-29.87L27.53,-27.21L24.53,-24.46L21.52,-21.61L18.48,-18.68L15.43,-15.68L12.36,-12.61L9.28,-9.50L6.19,-6.36L3.10,-3.18L0.00,-0.00L-3.10,3.18L-6.19,6.36L-9.28,9.50L-12.36,12.61L-15.43,15.68L-18.48,18.68L-21.52,21.61L-24.53,24.46L-27.53,27.21L-30.50,29.87L-33.44,32.40L-36.35,34.82L-39.23,37.10L-42.08,39.24L-44.88,41.23L-47.66,43.07L-50.39,44.74L-53.08,46.24L-55.73,47.56L-58.34,48.71L-60.90,49.67L-63.42,50.43L-65.90,51.00L-68.33,51.37L-70.71,51.53L-73.04,51.48L-75.32,51.22L-77.53,50.75L-79.68,50.06L-81.75,49.16L-83.73,48.05L-85.63,46.75L-87.44,45.25L-89.14,43.58L-90.75,41.73L-92.26,39.72L-93.68,37.55L-94.98,35.24L-96.19,32.80L-97.30,30.23L-98.31,27.54L-99.22,24.76L-100.02,21.88L-100.73,18.91L-101.33,15.87L-101.83,12.77L-102.24,9.63L-102.54,6.44L-102.73,3.23L-102.83,0.00L-102.82,-3.23L-102.71,-6.45L-102.50,-9.65L-102.19,-12.82L-101.77,-15.94L-101.25,-19.02L-100.63,-22.02L-99.90,-24.95L-99.07,-27.79L-98.13,-30.54L-97.08,-33.19L-95.93,-35.72L-94.67,-38.13L-93.29,-40.40L-91.80,-42.54L-90.19,-44.52L-88.46,-46.34L-86.61,-47.99L-84.64,-49.45L-82.56,-50.71L-80.37,-51.76L-78.07,-52.59L-75.69,-53.19L-73.23,-53.56L-70.71,-53.70L-68.14,-53.61L-65.51,-53.30L-62.85,-52.77L-60.15,-52.04L-57.42,-51.11L-54.65,-49.98L-51.85,-48.67L-49.02,-47.18L-46.15,-45.52L-43.26,-43.70L-40.33,-41.72L-37.37,-39.59L-34.39,-37.32L-31.38,-34.92L-28.34,-32.40L-25.28,-29.77L-22.21,-27.03L-19.11,-24.20L-16.00,-21.30L-12.88,-18.32L-9.74,-15.29L-6.60,-12.21L-3.46,-9.10L-0.32,-5.97L2.83,-2.83ZM-8.49,8.49L-5.34,11.63L-2.18,14.77L0.99,17.90L4.17,21.00L7.35,24.07L10.53,27.08L13.70,30.04L16.88,32.92L20.05,35.71L23.22,38.42L26.38,41.02L29.54,43.50L32.69,45.87L35.83,48.10L38.97,50.19L42.11,52.13L45.25,53.92L48.39,55.53L51.54,56.97L54.71,58.21L57.88,59.26L61.07,60.09L64.28,60.68L67.50,61.02L70.71,61.09L73.90,60.87L77.05,60.35L80.11,59.53L83.07,58.41L85.88,57.02L88.52,55.36L90.97,53.47L93.24,51.39L95.31,49.12L97.20,46.71L98.91,44.15L100.45,41.48L101.84,38.70L103.08,35.82L104.17,32.85L105.14,29.80L105.98,26.68L106.70,23.48L107.29,20.23L107.77,16.93L108.14,13.59L108.39,10.22L108.53,6.82L108.56,3.41L108.49,0.00L108.30,-3.40L108.00,-6.79L107.60,-10.14L107.08,-13.45L106.46,-16.72L105.73,-19.92L104.89,-23.05L103.93,-26.10L102.87,-29.05L101.69,-31.91L100.40,-34.65L99.00,-37.27L97.47,-39.75L95.83,-42.10L94.06,-44.28L92.17,-46.30L90.16,-48.13L88.03,-49.77L85.78,-51.19L83.44,-52.37L81.00,-53.32L78.49,-54.02L75.93,-54.46L73.33,-54.65L70.71,-54.59L68.08,-54.30L65.43,-53.79L62.78,-53.06L60.12,-52.14L57.46,-51.02L54.77,-49.71L52.08,-48.23L49.36,-46.58L46.62,-44.76L43.86,-42.79L41.07,-40.67L38.26,-38.40L35.43,-36.00L32.57,-33.47L29.69,-30.82L26.78,-28.06L23.86,-25.20L20.92,-22.25L17.96,-19.23L14.99,-16.13L12.01,-12.97L9.01,-9.77L6.01,-6.53L3.01,-3.27L0.00,-0.00L-3.01,3.27L-6.01,6.53L-9.01,9.77L-12.01,12.97L-14.99,16.13L-17.96,19.23L-20.92,22.25L-23.86,25.20L-26.78,28.06L-29.69,30.82L-32.57,33.47L-35.43,36.00L-38.26,38.40L-41.07,40.67L-43.86,42.79L-46.62,44.76L-49.36,46.58L-52.08,48.23L-54.77,49.71L-57.46,51.02L-60.12,52.14L-62.78,53.06L-65.43,53.79L-68.08,54.30L-70.71,54.59L-73.33,54.65L-75.93,54.46L-78.49,54.02L-81.00,53.32L-83.44,52.37L-85.78,51.19L-88.03,49.77L-90.16,48.13L-92.17,46.30L-94.06,44.28L-95.83,42.10L-97.47,39.75L-99.00,37.27L-100.40,34.65L-101.69,31.91L-102.87,29.05L-103.93,26.10L-104.89,23.05L-105.73,19.92L-106.46,16.72L-107.08,13.45L-107.60,10.14L-108.00,6.79L-108.30,3.40L-108.49,0.00L-108.56,-3.41L-108.53,-6.82L-108.39,-10.22L-108.14,-13.59L-107.77,-16.93L-107.29,-20.23L-106.70,-23.48L-105.98,-26.68L-105.14,-29.80L-104.17,-32.85L-103.08,-35.82L-101.84,-38.70L-100.45,-41.48L-98.91,-44.15L-97.20,-46.71L-95.31,-49.12L-93.24,-51.39L-90.97,-53.47L-88.52,-55.36L-85.88,-57.02L-83.07,-58.41L-80.11,-59.53L-77.05,-60.35L-73.90,-60.87L-70.71,-61.09L-67.50,-61.02L-64.28,-60.68L-61.07,-60.09L-57.88,-59.26L-54.71,-58.21L-51.54,-56.97L-48.39,-55.53L-45.25,-53.92L-42.11,-52.13L-38.97,-50.19L-35.83,-48.10L-32.69,-45.87L-29.54,-43.50L-26.38,-41.02L-23.22,-38.42L-20.05,-35.71L-16.88,-32.92L-13.70,-30.04L-10.53,-27.08L-7.35,-24.07L-4.17,-21.00L-0.99,-17.90L2.18,-14.77L5.34,-11.63L8.49,-8.49ZM-14.14,14.14L-10.99,17.29L-7.81,20.44L-4.62,23.59L-1.41,26.72L1.81,29.81L5.05,32.87L8.30,35.87L11.56,38.80L14.82,41.66L18.10,44.44L21.39,47.11L24.69,49.69L28.01,52.15L31.34,54.48L34.69,56.68L38.07,58.74L41.48,60.65L44.93,62.39L48.44,63.95L51.99,65.32L55.61,66.48L59.30,67.40L63.05,68.06L66.86,68.43L70.71,68.48L74.57,68.18L78.41,67.51L82.16,66.48L85.77,65.07L89.19,63.33L92.39,61.28L95.34,58.96L98.02,56.43L100.43,53.73L102.60,50.87L104.52,47.91L106.23,44.84L107.74,41.68L109.07,38.46L110.22,35.16L111.22,31.81L112.06,28.40L112.77,24.95L113.34,21.45L113.78,17.92L114.09,14.36L114.28,10.78L114.35,7.19L114.31,3.59L114.14,0.00L113.86,-3.58L113.47,-7.13L112.96,-10.65L112.33,-14.13L111.59,-17.56L110.73,-20.92L109.75,-24.22L108.65,-27.43L107.43,-30.56L106.09,-33.58L104.62,-36.50L103.01,-39.29L101.27,-41.96L99.39,-44.48L97.37,-46.84L95.20,-49.02L92.89,-51.01L90.43,-52.78L87.84,-54.32L85.13,-55.59L82.32,-56.58L79.45,-57.28L76.54,-57.69L73.62,-57.81L70.71,-57.65L67.82,-57.24L64.97,-56.58L62.14,-55.70L59.35,-54.61L56.57,-53.33L53.82,-51.86L51.07,-50.22L48.33,-48.42L45.58,-46.46L42.83,-44.35L40.07,-42.09L37.29,-39.70L34.50,-37.18L31.70,-34.53L28.87,-31.77L26.04,-28.91L23.19,-25.95L20.32,-22.90L17.44,-19.77L14.56,-16.58L11.66,-13.33L8.75,-10.04L5.84,-6.71L2.92,-3.36L0.00,-0.00L-2.92,3.36L-5.84,6.71L-8.75,10.04L-11.66,13.33L-14.56,16.58L-17.44,19.77L-20.32,22.90L-23.19,25.95L-26.04,28.91L-28.87,31.77L-31.70,34.53L-34.50,37.18L-37.29,39.70L-40.07,42.09L-42.83,44.35L-45.58,46.46L-48.33,48.42L-51.07,50.22L-53.82,51.86L-56.57,53.33L-59.35,54.61L-62.14,55.70L-64.97,56.58L-67.82,57.24L-70.71,57.65L-73.62,57.81L-76.54,57.69L-79.45,57.28L-82.32,56.58L-85.13,55.59L-87.84,54.32L-90.43,52.78L-92.89,51.01L-95.20,49.02L-97.37,46.84L-99.39,44.48L-101.27,41.96L-103.01,39.29L-104.62,36.50L-106.09,33.58L-107.43,30.56L-108.65,27.43L-109.75,24.22L-110.73,20.92L-111.59,17.56L-112.33,14.13L-112.96,10.65L-113.47,7.13L-113.86,3.58L-114.14,0.00L-114.31,-3.59L-114.35,-7.19L-114.28,-10.78L-114.09,-14.36L-113.78,-17.92L-113.34,-21.45L-112.77,-24.95L-112.06,-28.40L-111.22,-31.81L-110.22,-35.16L-109.07,-38.46L-107.74,-41.68L-106.23,-44.84L-104.52,-47.91L-102.60,-50.87L-100.43,-53.73L-98.02,-56.43L-95.34,-58.96L-92.39,-61.28L-89.19,-63.33L-85.77,-65.07L-82.16,-66.48L-78.41,-67.51L-74.57,-68.18L-70.71,-68.48L-66.86,-68.43L-63.05,-68.06L-59.30,-67.40L-55.61,-66.48L-51.99,-65.32L-48.44,-63.95L-44.93,-62.39L-41.48,-60.65L-38.07,-58.74L-34.69,-56.68L-31.34,-54.48L-28.01,-52.15L-24.69,-49.69L-21.39,-47.11L-18.10,-44.44L-14.82,-41.66L-11.56,-38.80L-8.30,-35.87L-5.05,-32.87L-1.81,-29.81L1.41,-26.72L4.62,-23.59L7.81,-20.44L10.99,-17.29L14.14,-14.14Z" fill="none" stroke="#FFFFFF" stroke-width="0.8" opacity="0.55"/>
  <path d="M14.14,-14.14L-14.14,14.14M34.37,5.80L7.21,34.87M52.23,21.37L29.11,52.94M65.57,29.78L51.99,65.32M71.49,31.67L77.13,67.78M74.36,31.05L98.85,55.55M79.99,23.62L110.22,35.16M84.67,8.82L114.23,11.97M86.15,-8.97L112.76,-11.82M84.12,-25.19L106.09,-33.58M79.53,-36.23L93.67,-50.37M73.06,-41.69L75.57,-57.76M60.98,-41.78L56.57,-53.33M43.13,-33.80L38.22,-40.51M22.22,-18.81L19.36,-21.86M0.00,-0.00L0.00,-0.00M-22.22,18.81L-19.36,21.86M-43.13,33.80L-38.22,40.51M-60.98,41.78L-56.57,53.33M-73.06,41.69L-75.57,57.76M-79.53,36.23L-93.67,50.37M-84.12,25.19L-106.09,33.58M-86.15,8.97L-112.76,11.82M-84.67,-8.82L-114.23,-11.97M-79.99,-23.62L-110.22,-35.16M-74.36,-31.05L-98.85,-55.55M-71.49,-31.67L-77.13,-67.78M-65.57,-29.78L-51.99,-65.32M-52.23,-21.37L-29.11,-52.94M-34.37,-5.80L-7.21,-34.87" fill="none" stroke="#FFFFFF" stroke-width="0.5" opacity="0.35"/>
</svg>